<?xml version="1.0" encoding="utf-8"?>
<!-- Generator: Adobe Illustrator 28.0.0, SVG Export Plug-In . SVG Version: 6.00 Build 0)  -->
<svg version="1.1" id="Layer_1" xmlns="http://www.w3.org/2000/svg" xmlns:xlink="http://www.w3.org/1999/xlink" x="0px" y="0px"
	 viewBox="0 0 780 700" style="enable-background:new 0 0 780 700;" xml:space="preserve">
<style type="text/css">
	.st0{fill:#223377;}
</style>
<g>
	<path class="st0" d="M584.1,147.4c22.9-8,40.5-17,51.5-26c7.5-6.1,9.9-10.2,9.9-11.8c0-1.6-2.4-5.7-9.9-11.8
		c-11-8.9-28.5-18-51.5-26C533.9,54.4,464.5,44.2,390,44.2S246.1,54.4,195.9,71.8c-22.9,8-40.5,17-51.5,26
		c-7.5,6.1-9.9,10.1-9.9,11.8c0,1.6,2.4,5.7,9.9,11.8c11,8.9,28.5,18,51.5,26c50.2,17.4,119.6,27.6,194.1,27.6
		S533.9,164.7,584.1,147.4L584.1,147.4z M118.1,328.7v94.8c27.9,29.5,103.1,65.3,194.9,76c134.6,15.7,262.1-13.7,348.6-72.4
		l0.3-96.9c-92.2,54.2-222,77-353.2,61.7C227.5,382.5,158.3,358,118.1,328.7L118.1,328.7z M118.1,269.4
		c28,29.4,103.1,65.3,194.9,75.9c134.9,15.7,262.6-13.8,349.1-72.7l0.4-107.5c-55.1,32.3-156.5,54-272.5,54
		c-115.6,0-216.6-21.5-271.8-53.6C118.2,200.2,118.1,234.8,118.1,269.4L118.1,269.4z M118.2,482.8l0.2,79.6l-0.8-5.5
		c16.5,54.5,121.7,98.3,278.4,98.3c85.3,0,152.2-12.9,203.6-38.3c14.4-7.2,25.4-13.2,36.2-21.1c7.2-5.2,11.8-8.4,19.5-15.2
		c8-7.1,20.2-5.3,27.4,2.7c7.1,7.9,8,20.8,0,27.9c-8.6,7.5-12.7,10.9-21.1,17.1c-12.5,9.2-26.8,18.7-43.3,26.9
		C561.6,683.3,503.8,700,396,700c-179.6,0-298.3-56.8-321-131.9l-0.8-2.7v-2.8l-0.3-113.7c-0.1-111.8,0-223.6,0.3-335.5
		c-0.1-1.3-0.2-2.6-0.2-3.9C73.9,49.1,215.4,0,390,0s316.1,49.1,316.1,109.6c0,2.4-0.2,4.7-0.6,7.1c0.5,1.7,0.8,3.5,0.8,5.2L705,505
		c-0.1,10.7-9.9,19.3-21.9,19.2c-12.1,0-21.8-8.7-21.8-19.4v-20.1c-92.1,53.9-221.6,76.6-352.6,61.4
		C227.6,536.6,158.4,512.1,118.2,482.8L118.2,482.8z M610.3,268.6c-10.4,0.1-19-8.3-19.1-18.7c0-10.3,8.6-18.7,19.2-18.7
		c10.6,0,19.2,8.3,19.2,18.7C629.6,260.3,620.9,268.6,610.3,268.6L610.3,268.6z M610.3,422.8c-10.4,0.1-19-8.3-19.1-18.7
		c0-10.3,8.6-18.7,19.2-18.7c10.6,0,19.2,8.4,19.2,18.7C629.6,414.4,620.9,422.8,610.3,422.8L610.3,422.8z M610.3,579
		c-10.5,0.1-19-8.3-19.1-18.8c0,0,0,0,0,0c0-10.3,8.6-18.7,19.2-18.7c10.6,0,19.2,8.4,19.2,18.7S620.9,578.9,610.3,579L610.3,579z"
		/>
</g>
</svg>
