<?xml version="1.0" encoding="utf-8"?>
<!-- Generator: Adobe Illustrator 28.0.0, SVG Export Plug-In . SVG Version: 6.00 Build 0)  -->
<svg version="1.1" id="Layer_1" xmlns="http://www.w3.org/2000/svg" xmlns:xlink="http://www.w3.org/1999/xlink" x="0px" y="0px"
	 viewBox="0 0 780 700" style="enable-background:new 0 0 780 700;" xml:space="preserve">
<style type="text/css">
	.st0{fill:#223377;}
</style>
<g>
	<path class="st0" d="M286.9,340.6c-51.7,0-93.8-42.1-93.8-93.8s42.1-93.8,93.8-93.8s93.8,42.1,93.8,93.8S338.6,340.6,286.9,340.6z
		 M286.9,203.1c-24.1,0-43.8,19.6-43.8,43.8s19.6,43.8,43.8,43.8c24.1,0,43.8-19.6,43.8-43.8S311,203.1,286.9,203.1z"/>
</g>
<g>
	<path class="st0" d="M286.9,546.9c-69.6,0-111.2-7.7-135-24.9c-27.5-19.9-27.5-48.2-27.5-68.9c0-28.3,19.2-53.5,54.1-71
		c29.4-14.7,67.9-22.8,108.4-22.8c40.5,0,79,8.1,108.4,22.8c34.9,17.4,54.1,42.6,54.1,71c0,20.7,0,48.9-27.5,68.9
		C398.1,539.2,356.4,546.9,286.9,546.9z M286.9,409.4c-32.4,0-63.8,6.4-86,17.5c-16.1,8-26.5,18.3-26.5,26.3c0,19.9,1,24.1,6.8,28.4
		c9.7,7,35.9,15.4,105.7,15.4s96-8.4,105.7-15.4c5.8-4.2,6.8-8.5,6.8-28.4c0-7.9-10.4-18.2-26.5-26.3
		C350.7,415.8,319.3,409.4,286.9,409.4z"/>
</g>
<g>
	<path class="st0" d="M458.8,650H321.2c-66.8,0-115.1,0-154.2-5.3c-44.6-6-74.9-19.1-98.2-42.3c-23.3-23.3-36.3-53.6-42.3-98.2
		c-5.3-39.1-5.3-87.4-5.3-154.2c0-66.8,0-115.1,5.3-154.2c6-44.6,19.1-74.9,42.3-98.2c23.3-23.3,53.6-36.3,98.2-42.3
		C206.1,50,254.4,50,321.2,50h137.5c66.8,0,115.1,0,154.2,5.3c44.6,6,74.9,19.1,98.2,42.3c19.2,19.2,31.4,43.1,38.4,75.2
		c2.9,13.5-5.6,26.8-19.1,29.7c-13.5,2.9-26.8-5.6-29.7-19.1c-4.9-22.7-12.6-38.2-24.9-50.5c-32.9-32.9-94.5-32.9-217-32.9H321.2
		c-122.6,0-184.1,0-217,32.9c-33,33-33,94.5-33,217.1c0,122.6,0,184.1,33,217c33,33,94.5,33,217.1,33h137.5c122.6,0,184.1,0,217-33
		c33-32.9,33-94.5,33-217c0-13.8,11.2-25,25-25c13.8,0,25,11.2,25,25c0,66.8,0,115.1-5.3,154.2c-6,44.6-19.1,74.9-42.3,98.2
		c-23.3,23.3-53.6,36.3-98.2,42.3C573.9,650,525.6,650,458.8,650z"/>
</g>
<g>
	<path class="st0" d="M630.6,375H493.1c-13.8,0-25-11.2-25-25c0-13.8,11.2-25,25-25h137.5c13.8,0,25,11.2,25,25
		C655.6,363.8,644.4,375,630.6,375z"/>
</g>
<g>
	<path class="st0" d="M630.6,271.9H458.8c-13.8,0-25-11.2-25-25s11.2-25,25-25h171.9c13.8,0,25,11.2,25,25S644.4,271.9,630.6,271.9z
		"/>
</g>
<g>
	<path class="st0" d="M630.6,478.1H527.5c-13.8,0-25-11.2-25-25c0-13.8,11.2-25,25-25h103.1c13.8,0,25,11.2,25,25
		C655.6,466.9,644.4,478.1,630.6,478.1z"/>
</g>
</svg>
