<?xml version="1.0" encoding="utf-8"?>
<!-- Generator: Adobe Illustrator 28.0.0, SVG Export Plug-In . SVG Version: 6.00 Build 0)  -->
<svg version="1.1" id="Layer_1" xmlns="http://www.w3.org/2000/svg" xmlns:xlink="http://www.w3.org/1999/xlink" x="0px" y="0px"
	 viewBox="0 0 780 700" style="enable-background:new 0 0 780 700;" xml:space="preserve">
<style type="text/css">
	.st0{fill:#223377;}
</style>
<path class="st0" d="M146.4,563.3l39-87.2l-17.8-9.1c-38.4-19.6-69.8-46.3-91.4-77.1C54.5,359,42.5,324.3,42.5,287.4
	c0-29,7.4-56.5,21-82c20.4-38.1,55-71.5,99.5-95.3c44.5-23.8,98.6-37.9,157-37.9c62.5,0,119.9,16.1,165.8,43
	c46,26.8,80.3,64.2,97.8,106.4l39-16.2c-21.7-52.1-62.8-95.9-115.5-126.7C454.4,47.9,389.8,30,320,30c-87,0-166.1,27.8-224.3,73.7
	c-29.1,23-52.9,50.6-69.5,81.7c-16.6,31.1-26,65.7-26,101.9c0,46.2,15.2,89.7,41.3,126.8c22.5,32,53.1,59.4,89.2,80.7L77.3,614.3
	l36.7-4.1c75.3-8.4,148.6-26.3,209.4-44.5l-12.1-40.5C262.4,540,205.3,554.2,146.4,563.3z"/>
<path class="st0" d="M749.4,524.8c19.1-27.1,30.3-59,30.3-93.1c0-26.7-6.9-52.1-19.1-74.9c-18.3-34.2-48.2-62.3-85.1-82
	c-36.9-19.7-80.8-31-127.8-31c-62.7,0-119.9,20-162.2,53.4c-21.1,16.7-38.5,36.8-50.7,59.6c-12.2,22.8-19.1,48.2-19.1,74.9
	c0,40.8,16.1,78.5,42.5,108.6c26.2,29.9,62.3,52.7,104,66.1c43.4,16.8,134.6,48.8,230.3,59.5l36.7,4.1l-40.1-89.5
	C713.3,565.5,733.9,546.8,749.4,524.8z M652.5,553l-17.8,9.1l25.3,56.5c-76-12.9-146.8-37.7-182.4-51.6l-0.6-0.2l-0.7-0.2
	c-35.6-11.2-65.6-30.5-86.2-54.1c-20.6-23.7-32-51.2-32.1-80.8c0-19.4,4.9-37.8,14.1-55c13.7-25.7,37.3-48.4,67.7-64.7
	c30.4-16.3,67.7-26,107.9-26c53.7,0,101.9,17.3,136,44.3c17,13.5,30.5,29.3,39.7,46.4c9.2,17.1,14.1,35.6,14.1,55
	c0,24.7-8,47.9-22.6,68.8C700.2,521.3,678.8,539.6,652.5,553z"/>
</svg>
