<svg width="24" height="25" viewBox="0 0 24 25" fill="none" xmlns="http://www.w3.org/2000/svg">
<g clip-path="url(#clip0_1823_748)">
<path d="M24 12.7368C24 6.10939 18.6274 0.736816 12 0.736816C5.37258 0.736816 0 6.10939 0 12.7368C0 18.7263 4.3882 23.6908 10.125 24.591V16.2056H7.07812V12.7368H10.125V10.0931C10.125 7.08557 11.9166 5.42432 14.6576 5.42432C15.9701 5.42432 17.3438 5.65869 17.3438 5.65869V8.61182H15.8306C14.34 8.61182 13.875 9.53689 13.875 10.4868V12.7368H17.2031L16.6711 16.2056H13.875V24.591C19.6118 23.6908 24 18.7263 24 12.7368Z" fill="white"/>
</g>
<defs>
<clipPath id="clip0_1823_748">
<rect width="24" height="24" fill="white" transform="translate(0 0.736816)"/>
</clipPath>
</defs>
</svg>
