<svg width="24" height="25" viewBox="0 0 24 25" fill="none" xmlns="http://www.w3.org/2000/svg">
<g clip-path="url(#clip0_1823_752)">
<path d="M12 2.89775C15.2063 2.89775 15.5859 2.91182 16.8469 2.96807C18.0188 3.01963 18.6516 3.2165 19.0734 3.38057C19.6313 3.59619 20.0344 3.85869 20.4516 4.27588C20.8734 4.69775 21.1313 5.09619 21.3469 5.654C21.5109 6.07588 21.7078 6.71338 21.7594 7.88057C21.8156 9.14619 21.8297 9.52588 21.8297 12.7274C21.8297 15.9337 21.8156 16.3134 21.7594 17.5743C21.7078 18.7462 21.5109 19.379 21.3469 19.8009C21.1313 20.3587 20.8687 20.7618 20.4516 21.179C20.0297 21.6009 19.6313 21.8587 19.0734 22.0743C18.6516 22.2384 18.0141 22.4353 16.8469 22.4868C15.5813 22.5431 15.2016 22.5571 12 22.5571C8.79375 22.5571 8.41406 22.5431 7.15313 22.4868C5.98125 22.4353 5.34844 22.2384 4.92656 22.0743C4.36875 21.8587 3.96563 21.5962 3.54844 21.179C3.12656 20.7571 2.86875 20.3587 2.65313 19.8009C2.48906 19.379 2.29219 18.7415 2.24063 17.5743C2.18438 16.3087 2.17031 15.929 2.17031 12.7274C2.17031 9.52119 2.18438 9.1415 2.24063 7.88057C2.29219 6.70869 2.48906 6.07588 2.65313 5.654C2.86875 5.09619 3.13125 4.69307 3.54844 4.27588C3.97031 3.854 4.36875 3.59619 4.92656 3.38057C5.34844 3.2165 5.98594 3.01963 7.15313 2.96807C8.41406 2.91182 8.79375 2.89775 12 2.89775ZM12 0.736816C8.74219 0.736816 8.33438 0.750879 7.05469 0.807129C5.77969 0.863379 4.90313 1.06963 4.14375 1.36494C3.35156 1.67432 2.68125 2.08213 2.01563 2.75244C1.34531 3.41807 0.9375 4.08838 0.628125 4.87588C0.332812 5.63994 0.126563 6.51182 0.0703125 7.78682C0.0140625 9.07119 0 9.479 0 12.7368C0 15.9946 0.0140625 16.4024 0.0703125 17.6821C0.126563 18.9571 0.332812 19.8337 0.628125 20.5931C0.9375 21.3853 1.34531 22.0556 2.01563 22.7212C2.68125 23.3868 3.35156 23.7993 4.13906 24.104C4.90313 24.3993 5.775 24.6056 7.05 24.6618C8.32969 24.7181 8.7375 24.7321 11.9953 24.7321C15.2531 24.7321 15.6609 24.7181 16.9406 24.6618C18.2156 24.6056 19.0922 24.3993 19.8516 24.104C20.6391 23.7993 21.3094 23.3868 21.975 22.7212C22.6406 22.0556 23.0531 21.3853 23.3578 20.5978C23.6531 19.8337 23.8594 18.9618 23.9156 17.6868C23.9719 16.4071 23.9859 15.9993 23.9859 12.7415C23.9859 9.48369 23.9719 9.07588 23.9156 7.79619C23.8594 6.52119 23.6531 5.64463 23.3578 4.88525C23.0625 4.08838 22.6547 3.41807 21.9844 2.75244C21.3188 2.08682 20.6484 1.67432 19.8609 1.36963C19.0969 1.07432 18.225 0.868066 16.95 0.811816C15.6656 0.750879 15.2578 0.736816 12 0.736816Z" fill="white"/>
<path d="M12 6.57275C8.59688 6.57275 5.83594 9.33369 5.83594 12.7368C5.83594 16.1399 8.59688 18.9009 12 18.9009C15.4031 18.9009 18.1641 16.1399 18.1641 12.7368C18.1641 9.33369 15.4031 6.57275 12 6.57275ZM12 16.7353C9.79219 16.7353 8.00156 14.9446 8.00156 12.7368C8.00156 10.529 9.79219 8.73838 12 8.73838C14.2078 8.73838 15.9984 10.529 15.9984 12.7368C15.9984 14.9446 14.2078 16.7353 12 16.7353Z" fill="white"/>
<path d="M19.8469 6.32883C19.8469 7.12571 19.2 7.7679 18.4078 7.7679C17.6109 7.7679 16.9688 7.12102 16.9688 6.32883C16.9688 5.53196 17.6156 4.88977 18.4078 4.88977C19.2 4.88977 19.8469 5.53665 19.8469 6.32883Z" fill="white"/>
</g>
<defs>
<clipPath id="clip0_1823_752">
<rect width="24" height="24" fill="white" transform="translate(0 0.736816)"/>
</clipPath>
</defs>
</svg>
