<?xml version="1.0" encoding="utf-8"?>
<!-- Generator: Adobe Illustrator 28.0.0, SVG Export Plug-In . SVG Version: 6.00 Build 0)  -->
<svg version="1.1" id="Layer_1" xmlns="http://www.w3.org/2000/svg" xmlns:xlink="http://www.w3.org/1999/xlink" x="0px" y="0px"
	 viewBox="0 0 780 700" style="enable-background:new 0 0 780 700;" xml:space="preserve">
<style type="text/css">
	.st0{fill:#fff;}
</style>
<g>
	<path class="st0" d="M490,260.8c-30.8,0-55.8,25-55.8,55.8v66.7c0,30.8,25,55.8,55.8,55.8s55.8-25,55.8-55.8v-66.7
		C545.8,285.9,520.8,260.8,490,260.8z M500.8,383.3c0,6-4.9,10.8-10.8,10.8s-10.8-4.9-10.8-10.8v-66.7c0-6,4.9-10.8,10.8-10.8
		s10.8,4.9,10.8,10.8V383.3z"/>
	<path class="st0" d="M743.3,415.5c-2.8-4.9-6.5-8.3-8.9-10.4c-2.7-2.2-5.6-4.2-8.5-6c-5.6-3.5-13.2-7.8-22.1-12.8
		c-12.9-7.2-21.4-20.8-21.4-36.4c0-15.6,8.6-29.2,21.4-36.4c8.9-5,16.5-9.2,22.1-12.8c2.8-1.8,5.8-3.8,8.5-6c2.5-2,6.2-5.5,8.9-10.4
		c4-7.1,4.8-14.3,5-19.3c0.2-4.9-0.1-10.8-0.3-16.5c-2.6-62.5-11-109.7-45.3-143.9c-37.1-37-89.5-43.9-161.1-45.7
		c-23.5-0.6-42.6,18.3-42.6,41.6v82.8c0,4.5-3.7,8.3-8.4,8.3c-4.7,0-8.4-3.8-8.4-8.3v-0.1l-0.2-83.4c-0.1-23-18.8-41.5-41.7-41.5
		h-117c-62.3,0-111.5-0.1-150,5.1c-39.2,5.3-70.8,16.3-95.8,41.2C43,138.9,34.7,186.1,32,248.6c-0.2,5.7-0.5,11.6-0.3,16.5
		c0.2,5,1,12.2,5,19.3l0,0c2.8,4.9,6.5,8.3,8.9,10.4c2.7,2.2,5.6,4.2,8.5,6c5.6,3.5,13.2,7.8,22.1,12.8
		c12.9,7.2,21.4,20.8,21.4,36.4c0,15.6-8.6,29.2-21.4,36.4c-8.9,5-16.5,9.2-22.1,12.8c-2.8,1.8-5.8,3.8-8.5,6
		c-2.5,2-6.2,5.5-8.9,10.4c-4,7.1-4.8,14.3-5,19.3c-0.2,4.9,0.1,10.8,0.3,16.5c2.6,62.5,11,109.7,45.3,143.9
		c25,24.9,56.7,36,95.8,41.3c38.4,5.2,87.7,5.1,150,5.1h100.4c7.1,0,15,0.1,21.6-0.8c7.3-1,16.6-3.5,24.5-11.3
		c7.9-7.8,10.4-17.1,11.4-24.4c0.9-6.6,0.9-14.4,0.9-21.6l0.2-66.8v-0.1c0-4.5,3.7-8.3,8.4-8.3c4.7,0,8.4,3.8,8.4,8.3v65.9
		c0,7.3-0.1,15.4,0.9,22.1c1,7.5,3.7,17.1,12,24.9c8.1,7.8,17.6,10.1,25.2,10.9c6.7,0.7,14.7,0.3,21.8,0
		c62.5-2.6,109.6-11,143.8-45.1c34.3-34.2,42.7-81.4,45.3-143.9c0.2-5.7,0.5-11.6,0.3-16.5C748,429.9,747.3,422.6,743.3,415.5z
		 M77.5,256.4C77.4,256.3,77.4,256.3,77.5,256.4C77.6,256.4,77.6,256.4,77.5,256.4z M702.4,256.4
		C702.4,256.4,702.4,256.4,702.4,256.4C702.6,256.3,702.6,256.3,702.4,256.4z M77.5,443.6C77.6,443.6,77.6,443.6,77.5,443.6
		C77.4,443.7,77.4,443.7,77.5,443.6z M698.3,441.5c-0.1,2.1-0.2,4.6-0.3,7.8c-2.6,61.9-11.1,91.1-30.6,110.6l0,0
		c-19.6,19.5-48.8,28-110.6,30.6c-3.1,0.1-5.6,0.2-7.7,0.3c0-2.3,0-5,0-8.2v-65.9c0-32.3-26.2-58.3-58.4-58.3
		c-32.2,0-58.4,26-58.4,58.3h0l-0.2,66.8c0,3.3,0,6-0.1,8.3c-2.3,0-5,0-8.3,0H323.2c-63.7,0-109-0.1-143.3-4.7
		c-33.6-4.5-53-13-67.2-27.1C93,540.4,84.6,511.2,82,449.3c-0.1-3.1-0.2-5.6-0.3-7.8c0-0.2,0-0.5,0-0.7c4.2-2.6,10.1-5.9,18.9-10.8
		c28-15.6,47-45.6,47-80c0-34.5-19-64.4-47-80c-8.8-4.9-14.8-8.3-18.9-10.8c0-0.2,0-0.4,0-0.7c0.1-2.1,0.2-4.6,0.3-7.8
		c2.6-61.9,11.1-91.1,30.6-110.6c14.2-14.1,33.5-22.6,67.2-27.1c34.4-4.6,79.6-4.7,143.3-4.7h108.7l0.2,75.1h0
		c0,32.2,26.2,58.3,58.4,58.3c32.2,0,58.4-26.1,58.4-58.3v-74.1c66.9,2.3,97.8,10.4,118.4,30.9l0,0c19.6,19.5,28,48.7,30.6,110.6
		c0.1,3.1,0.2,5.6,0.3,7.8c0,0.2,0,0.5,0,0.7c-4.2,2.6-10.1,5.9-18.9,10.8c-28,15.6-47,45.6-47,80c0,34.5,19.1,64.4,47,80
		c8.8,4.9,14.8,8.3,18.9,10.8C698.3,441.1,698.3,441.3,698.3,441.5z M702.4,443.6C702.4,443.6,702.4,443.6,702.4,443.6
		C702.6,443.7,702.6,443.7,702.4,443.6z"/>
</g>
</svg>
