<?xml version="1.0" encoding="utf-8"?>
<!-- Generator: Adobe Illustrator 28.0.0, SVG Export Plug-In . SVG Version: 6.00 Build 0)  -->
<svg version="1.1" id="Layer_1" xmlns="http://www.w3.org/2000/svg" xmlns:xlink="http://www.w3.org/1999/xlink" x="0px" y="0px"
	 viewBox="0 0 600 600" style="enable-background:new 0 0 600 600;" xml:space="preserve">
<style type="text/css">
	.st0{fill:#0E1357;}
	.st1{fill:#FFFFFF;}
</style>
<g>
	<path class="st0" d="M300.1,0C134.4,0,0,134.4,0,300.1s134.4,300.1,300.1,300.1s300.1-134.4,300.1-300.1S465.8,0,300.1,0z
		 M300.1,553.2C160.3,553.2,47,439.9,47,300.1S160.3,47,300.1,47s253.1,113.3,253.1,253.1S439.9,553.2,300.1,553.2z"/>
	<circle class="st0" cx="300.1" cy="300.1" r="217.8"/>
	<path class="st1" d="M349.2,281.5c14.5-13,23.6-31.9,23.6-52.9c0-39.2-31.9-71.2-71.2-71.2h-62.6v119.3v23v127.5h83.8
		c41.5,0,75.3-33.8,75.3-75.3C398.1,319.8,377.7,292.2,349.2,281.5z M262.1,180.5h39.6c26.6,0,48.2,21.6,48.2,48.2
		s-21.6,48.2-48.2,48.2h-39.6V180.5z M322.9,404.3h-60.8V299.8h39.6h21.2c28.8,0,52.3,23.4,52.3,52.3
		C375.1,380.9,351.7,404.3,322.9,404.3z"/>
</g>
</svg>
