<?xml version="1.0" encoding="utf-8"?>
<!-- Generator: Adobe Illustrator 28.0.0, SVG Export Plug-In . SVG Version: 6.00 Build 0)  -->
<svg version="1.1" id="Layer_1" xmlns="http://www.w3.org/2000/svg" xmlns:xlink="http://www.w3.org/1999/xlink" x="0px" y="0px"
	 viewBox="0 0 1370 600" style="enable-background:new 0 0 1370 600;" xml:space="preserve">
<path d="M180,396.3V200h44.7v196.3H180z M1048.7,323c0-47.4-36.8-76.9-79.8-76.9c-43,0-79.8,29.7-79.8,76.9s36.8,77,79.8,77
	C1012,400,1048.7,370,1048.7,323L1048.7,323z M1004.7,323c0,24.8-16.5,38.7-36,38.7c-19.5,0-36-13.9-36-38.7
	c0-24.8,16.5-38.5,36-38.5c19.5,0,35.8,13.4,35.8,38.4L1004.7,323z M162.1,339.9c0-22-11.4-39-31.9-46.6
	c19.3-10.6,26.2-24.5,26.2-40.9c0-28.6-20.7-52.3-67-52H0.5v196.2h92.6c46.5-0.3,68.8-23.5,68.8-56.8L162.1,339.9z M109,258.1
	c0,13.3-8.4,21-24.8,21H47v-41H84c15,0,24.8,6.5,24.8,19.9L109,258.1z M112.8,336.8c0,12.8-9,21.3-25.6,21.3H47v-42.5h40.3
	C103.4,315.6,112.8,323.7,112.8,336.8z M551,286.1c-12.3-25.6-35.2-39.8-69.8-39.8c-40.9,0-77.4,25.6-77.4,76.6
	c0,49.5,32.2,77,76.9,77c31.3,0,57.8-12.5,70.3-39.5l-36-18.5c-6.5,12-16.5,19.6-32.7,19.6c-20.7,0-34.1-14.7-34.1-38.7
	s15.3-38.5,33.8-38.5c14.4,0,25.3,6.5,32.2,20.7L551,286.1z M1209.7,286.1c-12.3-25.6-35.2-39.8-69.8-39.8
	c-40.9,0-77.4,25.6-77.4,76.6c0,49.5,32.2,77,76.9,77c31.3,0,57.8-12.5,70.3-39.5l-36-18.5c-6.5,12-16.5,19.6-32.7,19.6
	c-20.7,0-34.1-14.7-34.1-38.7s15.3-38.5,33.8-38.5c14.4,0,25.3,6.5,32.2,20.7L1209.7,286.1z M835.1,396.3l-37.4-66h-28.6v66h-46V200
	h83.1c45,0,76.3,21.5,76.3,63.8c0,27-13.3,46-37.1,57.8l43,74.8H835.1z M769.4,291.4h34.4c21.3,0,31.6-12,31.6-26.2
	c0-16.9-9.8-26.2-31.6-26.2h-34.4V291.4z M396.6,393.8v-30.8c-2.5,0.7-5,1.1-7.6,1.1c-5.7,0-8.7-3-8.7-8.3v-50.9
	c0-38.2-25.6-58.3-67.9-58.3c-27.5,0-51,10.1-65.7,23.2l24.8,27.8c9.8-8.9,22.5-13.9,35.8-14.2c19.6,0,28.9,9.8,28.9,25.9v4.6
	c-11.5-2.8-23.3-4.3-35.2-4.4c-35.8,0-58.9,17.2-58.9,45.5c0,29.2,19.3,44.4,49.3,44.4c20.4,0,38.7-8.4,48.2-19.3
	c5.7,14.4,18.3,18.3,30.5,18.3C379.3,398.8,388.3,397.2,396.6,393.8z M336.4,347.7c0,13.3-12.8,22-27.5,22
	c-13.9,0-20.7-7.1-20.7-16.9c0-10.3,7.6-18,23.2-18c8.5,0.1,16.9,1.2,25.1,3.3V347.7z M1369.5,396.3l-52.6-91.3l49.3-53.7h-49.5
	l-52,57.8V200.3h-44.5v196.2h44.4V361l21.3-22.6l33.3,58h50.4L1369.5,396.3z M711.4,396.3L658.8,305l49.3-53.7H658l-51.5,57.8V200.3
	H562v196.2h44.4V361l21.3-22.6l33.3,58h50.4L711.4,396.3z"/>
</svg>
