<?xml version="1.0" encoding="utf-8"?>
<!-- Generator: Adobe Illustrator 28.0.0, SVG Export Plug-In . SVG Version: 6.00 Build 0)  -->
<svg version="1.1" id="Layer_1" xmlns="http://www.w3.org/2000/svg" xmlns:xlink="http://www.w3.org/1999/xlink" x="0px" y="0px"
	 viewBox="0 0 480 600" style="enable-background:new 0 0 480 600;" xml:space="preserve">
<g>
	<path d="M479.8,395.7c-0.1,0.8-0.3,1.7-0.3,2.5c-0.1,20-2.9,39.6-8.1,58.8c-9.7,35.6-28,66.1-54.4,91.7
		c-11.2,10.9-23.3,20.7-36.8,28.7c-15.2,9-31.4,15.3-48.8,18.1c-10.5,1.7-21.1,2-31.8,1.2c-10-0.8-19.8-2.6-29.3-6
		c-14.4-5.2-26.7-13.6-37.9-23.9c-6.8-6.3-13-13.3-18.6-20.7c-0.5-0.7-1.1-1.3-1.8-2.2c-0.6,1.1-1,1.9-1.4,2.7
		c-9,17.2-17.9,34.3-26.9,51.5c-1.1,2.2-1.2,2.2-3.8,1.9c-0.5-1.8-0.8-166.7-0.3-173.7c1.7,0.4,3.1,1.5,4.4,2.5
		c0.4,0.3,0.4,1.1,0.4,1.7c0.3,6,0.3,12,0.8,17.9c2.1,28.2,9,55.1,23.7,79.6c11.7,19.5,26.8,35.8,45.6,48.5
		c9.9,6.7,20.6,11.4,32.4,13.7c8.4,1.7,16.9,1.8,25.4,0.9c8.4-0.8,16.4-2.7,24.2-6c14.2-6.1,25.1-16,33.5-28.9
		c7-10.7,11.7-22.4,15.5-34.6c4.2-13.2,7-26.8,9-40.5c3.4-22.5,5-45.2,5.3-68c0.1-13.4,0.2-26.8-0.2-40.2c-0.7-22.1-2.7-44.2-7-65.9
		c-3.5-18-8.5-35.5-16.5-52.1c-4.6-9.5-10.3-18.3-17.5-26c-12.4-13.3-27.6-21.2-45.7-23.4c-17.7-2.2-35.2-0.7-52.3,4.6
		c-15.9,4.9-29,14.2-40.4,26.2c-12.5,13.1-21,28.6-26.9,45.6c-4.1,12-6.8,24.4-8.6,37c-2.2,14.8-2.9,29.8-3.1,44.7
		c0,0.6-0.1,1.2-0.2,2c-1.5,0-2.9,0-4.5,0c0-0.8-0.2-1.5-0.1-2.3c0.4-9.9,0.7-19.8,1.3-29.7c0.8-12.1,2.6-24.1,5.2-36
		c3.5-15.8,8.6-31,17-44.9c10.7-17.7,25-32,43.4-41.7c10.2-5.4,21.1-8.5,32.5-10.2c15.5-2.3,31.1-2.1,46.6-0.5
		c20.4,2,40,6.9,58.5,15.9c44.8,21.8,74.7,56.5,89.2,104.3c4.2,14,6.9,28.3,8.1,42.8c0.6,6.8,0.7,13.7,1,20.5c0,0.8,0.2,1.5,0.3,2.3
		C479.8,389.4,479.8,392.5,479.8,395.7z"/>
	<path d="M300.5,174.1c-1.5-1-2.9-1.7-4-2.6c-0.4-0.4-0.6-1.2-0.6-1.9c-0.2-3.9-0.2-7.9-0.4-11.8c-1.2-22.4-5.1-44.2-13.7-65.1
		c-11-26.8-28.3-48.8-51.4-66.1c-10.6-8-22.4-13.7-35.5-16.6c-8.5-1.9-17-2.1-25.6-1.4c-8.7,0.7-17.1,2.6-25.1,6
		c-14.4,6.1-25.4,16.1-33.9,29.1c-6.7,10.3-11.4,21.6-15.1,33.2c-4.4,13.7-7.3,27.7-9.5,41.9c-3.5,23.1-4.9,46.3-5.3,69.7
		c-0.3,15.7-0.1,31.4,0.7,47c1.3,24.9,4.1,49.6,10.3,73.8c3.8,14.6,8.8,28.8,16.2,42c6.3,11.3,14.2,21.2,24.6,29
		c10.1,7.5,21.5,12.1,33.9,13.9c10.6,1.6,21.2,1.2,31.8,0.1c9.8-1,19.4-3.2,28.6-7c12.9-5.3,23.7-13.5,33.4-23.5
		c12.3-12.7,20.7-27.7,26.5-44.2c4.4-12.5,7.3-25.4,9.2-38.5c2.2-14.8,3-29.8,3.1-44.7c0-0.6,0.1-1.2,0.1-2c1.5,0,3,0,4.6,0
		c0,0.7,0.1,1.4,0.1,2.1c-0.1,19.9-1.4,39.7-5.2,59.2c-3.2,16.9-8.1,33.2-16.5,48.3c-10.7,19.1-25.5,34.3-44.9,44.7
		c-10,5.3-20.8,8.5-32,10.2c-14.6,2.3-29.2,2.2-43.8,1c-18.2-1.5-35.9-5.2-52.7-12.2C58.6,367,25.5,331,9.7,279.3
		c-3.8-12.5-6.2-25.4-7.7-38.4c-1.8-16-2.2-32.1-1.3-48.1c1.7-29.4,8-57.6,20.8-84.3c11-22.8,26-42.6,44.4-59.8
		c8.7-8.2,18-15.7,28.1-22.3C112,14.6,131.4,6.6,152.8,4c20.3-2.5,40.3-1.1,59.5,6.3c14.2,5.5,26.4,14.3,37.3,24.8
		c6,5.8,11.5,12.1,16.6,18.7c0.5,0.7,1.1,1.4,1.9,2.4c3.4-6.3,6.6-12.5,9.8-18.6c3.3-6.3,6.6-12.6,9.8-18.8
		c3.2-6.2,6.5-12.4,9.8-18.7c1,0,1.9,0,3,0C300.5,57.9,300.5,115.8,300.5,174.1z"/>
</g>
</svg>
