<?xml version="1.0" encoding="utf-8"?>
<!-- Generator: Adobe Illustrator 28.0.0, SVG Export Plug-In . SVG Version: 6.00 Build 0)  -->
<svg version="1.1" id="Layer_1" xmlns="http://www.w3.org/2000/svg" xmlns:xlink="http://www.w3.org/1999/xlink" x="0px" y="0px"
	 viewBox="0 0 1200 600" style="enable-background:new 0 0 1200 600;" xml:space="preserve">
<style type="text/css">
	.st0{fill-rule:evenodd;clip-rule:evenodd;}
</style>
<path class="st0" d="M26.1,471.3H-0.6v5.1h148.2v-93.5h-4.5c0,0-0.2,53.9-17.9,71.7c-15.1,15.1-31,16.5-57,16.5V298.9
	c0,0,18-1.3,26.7,7.4c13.8,13.8,15.1,31.4,15.1,55.7h4.7V230.1h-4.7c0,24.3-1.3,41.9-15.1,55.7c-8.7,8.7-26.7,7.4-26.7,7.4V129.7
	c26.1,0,38.4,1.4,53.5,16.5c17.7,17.7,17.9,71.7,17.9,71.7h4.5v-93.5H-0.6v5.1h26.8V471.3L26.1,471.3z"/>
<path class="st0" d="M420.4,129.6V471c26.1,0,42-1.4,57-16.5c17.7-17.7,17.9-71.7,17.9-71.7h4.5v93.5H351.7v-5.1h26.8V129.5h-26.8
	v-5.1h93.1v5.3L420.4,129.6L420.4,129.6z"/>
<path class="st0" d="M769.8,129.6V471c26.1,0,42-1.4,57-16.5c17.7-17.7,17.9-71.7,17.9-71.7h4.5v93.5H701.1v-5.1h26.8V129.5h-26.8
	v-5.1h93.1v5.3L769.8,129.6L769.8,129.6z"/>
<path class="st0" d="M1077.9,471.3h-26.7v5.1h148.2v-93.5h-4.5c0,0-0.2,53.9-17.9,71.7c-15.1,15.1-31,16.5-57,16.5V298.9
	c0,0,18-1.3,26.7,7.4c13.8,13.8,15.1,31.4,15.1,55.7h4.7V230.1h-4.7c0,24.3-1.3,41.9-15.1,55.7c-8.7,8.7-26.7,7.4-26.7,7.4V129.7
	c26.1,0,38.4,1.4,53.5,16.5c17.7,17.7,17.9,71.7,17.9,71.7h4.5v-93.5h-144.7v5.1h26.7V471.3L1077.9,471.3z"/>
</svg>
