<?xml version="1.0" encoding="utf-8"?>
<!-- Generator: Adobe Illustrator 28.0.0, SVG Export Plug-In . SVG Version: 6.00 Build 0)  -->
<svg version="1.1" id="Layer_1" xmlns="http://www.w3.org/2000/svg" xmlns:xlink="http://www.w3.org/1999/xlink" x="0px" y="0px"
	 viewBox="0 0 872 600" style="enable-background:new 0 0 872 600;" xml:space="preserve">
<g>
	<g>
		<path d="M520.7,216.5c0,11-2.8,23.8-10.9,35.1h22.9V75.1h-73.1v72.1C499.1,159.4,520.7,184.8,520.7,216.5z"/>
	</g>
	<g>
		<path d="M394.4,140.9c16.5,0,31.8,3.9,43.6,7c-24.9-4.4-63.4,2-83.3,17.7v86.1h73.1v-97.9c15.8,2.9,27.8,9.3,35.1,14.2v83.7h15.9
			c-14.9,16.9-42.9,27.1-67,23.4v3.5c0,0,0,0,0,0c69.5,5.5,98.9-27.5,98.9-64.5c0-43.7-40.9-69.2-82.8-74.4V75.1h-73.1v65.2
			c-47.3,9.5-93.6,37.6-93.6,84.2c0,71.7,100.2,116.1,187.4,116.1c132.5,0,234.4-64,234.4-153.9C682.8,77.8,535.6,0.2,420,0.2
			c-132.5,0-230,84.2-230,174.1l0,0c0,46.5,26.2,85.5,59.1,112.7l2.5-1.6c-26.1-21.7-49.6-55.5-49.6-101.9
			C208.8,85,330.1,29.6,438,29.6c76.3,0,213.4,17.6,213.4,145.2c0,66.6-71.1,153.1-220.5,153.1c-76.5,0-135.9-41-135.9-99.9
			C295,177.1,334.9,140.9,394.4,140.9z"/>
	</g>
</g>
<g>
	<g>
		<path d="M111.4,596.6v-10.1H137v-86.9H68.6v86.9h26.3v10.1H0.5v-10.1h24v-177h-24v-10.1h94.4v10.1H68.6V488H137v-78.5h-25.6v-10.1
			h93.4v10.1h-24v177h24v10.1H111.4z"/>
	</g>
	<g>
		<path d="M240.9,422.8v-23.4h42.8v23.4H240.9z M219.9,596.6v-10.1h23V465.3h-23v-10h65.5v131.3h21.4v10.1H219.9z"/>
	</g>
	<g>
		<path d="M316,596.6v-10.1h23.7v-203H316v-10.1h66.5v213h22.4v10.1H316z"/>
	</g>
	<g>
		<path d="M471.5,596.6c-23.4,0-36-12-36-30.5V465.3h-23v-10h23v-56.1c13,0,26.6,0.3,39.9,0v56.1h33.1v10h-33.1v121.3h33.7v10.1
			H471.5z"/>
	</g>
	<g>
		<path d="M669.6,554.1c-4.9,13.3-25,46-73.9,46c-54.5,0-82.4-37.3-82.4-75.2c0-52.5,46.7-74.3,81.4-74.3c30.8,0,75.5,18.5,79.1,72
			C674.4,533,673.5,544.4,669.6,554.1z M623.2,477.9c-5.5-12.3-15.6-17.8-28.9-17.8c-33.4,0-34,34.4-34,64.2
			c0,40.2,3.6,47.3,6.2,52.2c4.2,8.1,13.3,15.6,28.2,15.6c33.4,0,33.4-36,33.1-69.1C627.4,487,625.1,482.5,623.2,477.9z"/>
	</g>
	<g>
		<path d="M788,596.6v-10.1h18.8v-83.3c0-18.8,0-37.3-20.7-37.3c-11.7,0-30.8,11.7-35.3,30.8c-1.6,5.8-1.3,12-1.3,27.6v62.2h21.4
			v10.1H684v-10.1h23V465.3h-23v-10h65.5v21.4c7.1-9.1,13-15.6,26.9-21.1c10.1-4.2,19.1-5.2,25.6-5.2c2.6,0,10.4,0,19.5,2.6
			c27.2,8.1,28.5,28.9,28.5,43.8v89.8h22.4v10.1H788z"/>
	</g>
</g>
</svg>
