<?xml version="1.0" encoding="utf-8"?>
<!-- Generator: Adobe Illustrator 28.0.0, SVG Export Plug-In . SVG Version: 6.00 Build 0)  -->
<svg version="1.1" id="Layer_1" xmlns="http://www.w3.org/2000/svg" xmlns:xlink="http://www.w3.org/1999/xlink" x="0px" y="0px"
	 viewBox="0 0 785.5 600" style="enable-background:new 0 0 785.5 600;" xml:space="preserve">
<style type="text/css">
	.st0{fill:#EB1D74;}
</style>
<g id="Layer_2_1_">
	<g id="Layer_1-2">
		<path class="st0" d="M306.9,165.8h-62.5c-1.9,0-3.7,1-5,2.7l-82.9,130.7L73.3,168.6c-1.1-1.7-2.9-2.7-5-2.7H5.8
			c-3.3,0-5.9,2.6-5.9,5.9v292.9c0,3.3,2.6,5.9,5.9,5.9h60.6c3.3,0,5.9-2.6,5.9-5.9V295l75.8,118.6c1.1,1.7,2.9,2.6,5,2.6h7
			c1.9,0,3.7-1,5-2.7L241,294.6v169.7c0,3.3,2.6,5.9,5.9,5.9h60.3c3.3,0,5.9-2.6,5.9-5.9V171.7C312.6,168.4,310,165.8,306.9,165.8z"
			/>
		<path class="st0" d="M779.6,301.5H646.4c-3.3,0-5.9,2.6-5.9,5.9v51c0,3.3,2.6,5.9,5.9,5.9h69.4c-11.3,27.9-38.1,43.9-73.8,43.9
			c-53.1,0-90.2-36.9-90.2-89.5s36.2-90.9,86.2-90.9c30.2,0,57.8,14.7,70.4,37.6c1.5,2.7,5.1,4,7.8,2.3c0.2,0,0.2-0.2,0.3-0.2
			l47.3-28.4c2.7-1.7,3.6-5.2,1.9-8c-26-43.8-74.8-71.1-127.5-71.1c-86,0-153.2,69.6-153.2,158.5c0,89.8,67.3,157.6,156.5,157.6
			c84.7,0,143.9-60.3,143.9-146.4v-22.5C785.5,304.1,782.9,301.5,779.6,301.5L779.6,301.5z"/>
		<path class="st0" d="M410.4,315.2l130.2-181.8c1.2-1.8,1.7-4.1,0.7-6s-2.9-3.3-5.2-3.3h-66.4c-1.8,0-3.6,0.8-4.5,2.3L329.9,311.4
			c-1.7,2.1-1.7,5,0,7l106,150.8c1.1,1.5,2.7,2.3,4.5,2.3h66.4c3.3,0,5.9-2.6,5.9-5.9c0-1.2-0.3-2.5-1.1-3.4L410.4,315.2z"/>
	</g>
</g>
</svg>
