<?xml version="1.0" encoding="utf-8"?>
<!-- Generator: Adobe Illustrator 28.0.0, SVG Export Plug-In . SVG Version: 6.00 Build 0)  -->
<svg version="1.1" id="Layer_1" xmlns="http://www.w3.org/2000/svg" xmlns:xlink="http://www.w3.org/1999/xlink" x="0px" y="0px"
	 viewBox="0 0 1200 600" style="enable-background:new 0 0 1200 600;" xml:space="preserve">
<style type="text/css">
	.st0{fill-rule:evenodd;clip-rule:evenodd;fill:#231F20;}
</style>
<polygon class="st0" points="0,151.4 105.8,151.4 105.8,154.4 79.8,154.4 158.7,370.5 225.3,154.4 199.1,154.4 199.1,151.4 
	256.2,151.4 256.2,154.4 231,154.4 137.1,453.1 27.8,154.4 0,154.4 "/>
<path class="st0" d="M712.1,146.1v103.8h-2.4c-4.5-20.4-10.8-40.3-21.7-58.4c-13-21.1-33.8-44.8-60.9-44.8
	c-62.2,0-67.8,111.4-67.8,153.9c0,38,3,77.3,16.8,112.9c9.7,25,23.7,37.3,49.7,37.3c20.7,0,42.6-10.4,53.6-28.4
	c2.8-4.7,3-9.9,3-15.2v-0.8v-79.5h-27.2V324h99.5v3.2h-23.3v120h-2.1c-5.9-9.8-15.1-16.2-27-16.2c-8.6,0-17,3-24.5,7.2l-6.7,3.7
	c-15.2,6.7-29.8,11.6-46.6,11.6c-77.2,0-118.3-82.3-118.3-150.5c0-49.9,19-103.3,59.5-134.5c18.2-14,40.1-24.3,63.5-24.3
	c9.1,0,18.2,2.8,26.6,6.2l6.2,2.4c7.1,2.6,14.8,5.1,22.4,5.1c9.5,0,17.9-6.2,25.2-11.6h2.5V146.1z"/>
<path class="st0" d="M741.7,151.4h106.1v3h-28.2v230.3c0,36.1,37.2,58,69.7,58c35,0,64.5-24.3,64.5-60.1V154.4h-33.3v-3h273.8v106.8
	h-2.1c-3.2-28.3-8.6-57.3-28-79.3c-19.7-22.3-46.4-24.5-73.9-24.5h-29.7v137.4c6.1,0.7,12.3,1.1,18.5,1.1c37.3,0,47-25.7,48.6-57.4
	h2.7V356h-2.7c-4.7-28.8-17.4-59.7-51.2-59.7c-5.3,0-10.5,0.3-15.9,0.8v147h44.5c23,0,46-10,62.3-26.1c13.9-13.7,23.6-31.5,27-50.8
	c1.8-10.8,2.7-21.7,3.3-32.6h2.4v112.5H986v-3h24.9V154.4h-52.6v229.1c0,47.4-45,68.4-87.2,68.4c-47.7,0-100.3-23.2-100.3-77.7
	V154.4h-29v-3H741.7z"/>
<path class="st0" d="M443.7,191.4c-21.4-26.5-54.8-46.4-89.6-46.4c-37.9,0-71.9,21-94.5,50.3c-22.9,29.9-34,67.6-34,105.1
	c0,39,12,78.5,36.8,109c21.7,26.8,55.3,46.5,90.4,46.5c37.5,0,71.3-21.3,93.9-50.4c22.8-29.9,34-67.6,34-105
	C480.7,261.5,468.4,221.9,443.7,191.4z M353,451.5c-58.5,0-73.8-107.8-73.8-151.1s15.2-151,73.8-151c58.4,0,73.8,107.8,73.8,151
	C426.8,343.5,411.4,451.5,353,451.5z"/>
</svg>
