<?xml version="1.0" encoding="utf-8"?>
<!-- Generator: Adobe Illustrator 28.0.0, SVG Export Plug-In . SVG Version: 6.00 Build 0)  -->
<svg version="1.1" id="Layer_1" xmlns="http://www.w3.org/2000/svg" xmlns:xlink="http://www.w3.org/1999/xlink" x="0px" y="0px"
	 viewBox="0 0 570 600" style="enable-background:new 0 0 570 600;" xml:space="preserve">
<polygon points="73.6,11.8 130.5,11.8 200.5,178.8 284.4,0.4 368.8,178.8 440.7,11.8 497,11.8 368.2,304 285,119.5 200,303.4 
	73.6,11.8 "/>
<polygon points="55,560.9 10.7,560.9 10.7,598 -0.1,598 -0.1,517.1 10.7,517.1 10.7,551.9 55,551.9 55,517.1 65.8,517.1 65.8,598 
	55,598 55,560.9 "/>
<path d="M174.8,557.3c0,16.2-7.2,34.7-28.7,34.7c-21,0-29.3-17.4-29.3-34.1c0-18.6,8.4-34.1,28.7-34.1
	C164.6,523.7,174.8,537.5,174.8,557.3L174.8,557.3z M186.2,556.7c0-26.4-18-41.3-40.7-41.3c-19.8,0-40.7,12-40.7,42.5
	c0,25.2,16.2,42.5,40.7,42.5C172.4,600.4,186.2,581.2,186.2,556.7L186.2,556.7z"/>
<polygon points="252,526.7 252,598 241.3,598 241.3,526.7 217.3,526.7 217.3,517.1 276.6,517.1 276.6,526.7 252,526.7 "/>
<polygon points="330.5,561.5 330.5,589 377.2,589 377.2,598 320.3,598 320.3,517.1 376,517.1 376,526.7 330.5,526.7 330.5,551.9 
	370,551.9 370,561.5 330.5,561.5 "/>
<polygon points="434.7,588.4 473.6,588.4 473.6,598 423.9,598 423.9,517.1 434.7,517.1 434.7,588.4 "/>
<path d="M534.7,560.9c-11.4-2.4-28.7-6.6-28.7-23.4c0-7.8,4.2-13.2,7.8-15.6c7.2-6,15.6-6.6,21.5-6.6c5.4,0,14.4,0,21.6,6
	c8.4,5.4,9.6,13.8,10.8,18.6l-11.4,0.6c0-2.4,0-8.4-6-13.2c-4.2-3-9.6-3.6-15-3.6c-9.6,0-18,3.6-18,12.6c0,9,9,10.8,15.6,12.6l9,2.4
	c6.6,1.2,9.6,1.8,13.2,3.6c12,4.8,13.8,14.4,13.8,19.8c0,7.8-3,15-10.2,19.8c-7.8,5.4-17.4,6-22.1,6c-7.2,0-32.3-1.2-34.1-28.1
	l11.4-1.2c0,3,0.6,10.2,6.6,15.6c4.8,4.2,10.8,5.4,16.8,5.4c11.4,0,19.8-6,19.8-16.2c0-9.6-7.2-12-15-13.8L534.7,560.9L534.7,560.9z
	"/>
</svg>
