<?xml version="1.0" encoding="utf-8"?>
<!-- Generator: Adobe Illustrator 28.0.0, SVG Export Plug-In . SVG Version: 6.00 Build 0)  -->
<svg version="1.1" id="Layer_1" xmlns="http://www.w3.org/2000/svg" xmlns:xlink="http://www.w3.org/1999/xlink" x="0px" y="0px"
	 viewBox="0 0 214 430" style="enable-background:new 0 0 214 430;" xml:space="preserve">
<style type="text/css">
	.st0{fill:#5E465D;}
	.st1{fill:#706F6F;}
	.st2{fill:#1D1D1B;}
	.st3{fill:url(#SVGID_1_);}
	.st4{fill:url(#SVGID_00000093161956299563193790000017199556622992414390_);}
	.st5{fill:url(#SVGID_00000014608415552818218180000009445955257789073828_);}
	.st6{fill:url(#SVGID_00000017507015977737196020000006336974212188997024_);}
	.st7{fill:url(#SVGID_00000077282425140243412640000001128356542462490754_);}
	.st8{fill:url(#SVGID_00000109715107847383140280000010475539952478905017_);}
	.st9{fill:url(#SVGID_00000165939123165823567120000010109837657818854305_);}
	.st10{fill:url(#SVGID_00000127765169942830801350000013861690796095265467_);}
	.st11{fill:url(#SVGID_00000176752047841543351090000014483541445799731613_);}
	.st12{fill:url(#SVGID_00000021798641141941294430000011566784516747264938_);}
	.st13{fill:url(#SVGID_00000013152305069574553010000012030397758089947823_);}
	.st14{clip-path:url(#SVGID_00000025416234284076278920000000583952534519962299_);fill:#223377;}
	.st15{clip-path:url(#SVGID_00000025416234284076278920000000583952534519962299_);fill:#FFFFFF;}
	.st16{clip-path:url(#SVGID_00000025416234284076278920000000583952534519962299_);}
	.st17{clip-path:url(#SVGID_00000029734073747534245960000006774807159323347337_);}
	.st18{clip-path:url(#SVGID_00000048459994588312309590000006886289458032934042_);}
	.st19{fill:url(#SVGID_00000176731411213251758560000005983231724420073104_);}
	.st20{fill:#FFFFFF;}
	.st21{opacity:0.5;enable-background:new    ;}
	.st22{clip-path:url(#SVGID_00000025416234284076278920000000583952534519962299_);fill:#D4F5FF;enable-background:new    ;}
	.st23{clip-path:url(#SVGID_00000025416234284076278920000000583952534519962299_);fill:#ABB2BD;}
	.st24{clip-path:url(#SVGID_00000025416234284076278920000000583952534519962299_);fill:#C8CCD4;}
	.st25{clip-path:url(#SVGID_00000025416234284076278920000000583952534519962299_);fill:#E8625D;}
	.st26{fill:url(#SVGID_00000111910472699938523150000000623956220635242407_);}
	.st27{fill:url(#SVGID_00000075869053563087467540000017923205374503491236_);}
	.st28{fill:url(#SVGID_00000057830522456571503940000007480675899375919746_);}
	.st29{fill:url(#SVGID_00000098906104829426268480000015923920534542716065_);}
	.st30{fill:url(#SVGID_00000136378266654642062920000009575887627969621384_);}
</style>
<path class="st0" d="M179,429.2H36.8c-18.5,0-33.6-15-33.6-33.6V33.2c0-18.5,15-33.6,33.6-33.6H179c18.5,0,33.6,15,33.6,33.6v362.5
	C212.6,414.2,197.6,429.2,179,429.2z"/>
<path class="st1" d="M178.8,0.6H37C18.9,0.6,4.2,15.3,4.2,33.4v361.9c0,18.1,14.7,32.8,32.8,32.8h141.7c18.1,0,32.8-14.7,32.8-32.8
	V33.4C211.6,15.3,196.9,0.6,178.8,0.6z M210.6,395.1c0,17.7-14.4,32.1-32.1,32.1H37.3c-17.7,0-32.1-14.4-32.1-32.1V33.7
	C5.2,16,19.6,1.6,37.3,1.6h141.2c17.7,0,32.1,14.4,32.1,32.1V395.1z"/>
<path class="st2" d="M178.2,425.9H37.6c-17,0-30.9-13.8-30.9-30.9V33.7c0-17,13.8-30.9,30.9-30.9h140.6c17,0,30.9,13.8,30.9,30.9
	v361.3C209.1,412.1,195.2,425.9,178.2,425.9z"/>
<g>
	<g>
		
			<linearGradient id="SVGID_1_" gradientUnits="userSpaceOnUse" x1="-467.9315" y1="422.5117" x2="-416.1532" y2="422.5117" gradientTransform="matrix(0 1 -1 0 635.7326 577.2998)">
			<stop  offset="0" style="stop-color:#68595F"/>
			<stop  offset="1.850530e-02" style="stop-color:#896E80"/>
			<stop  offset="3.819530e-02" style="stop-color:#5E3B5B"/>
			<stop  offset="8.205520e-02" style="stop-color:#2B1D2A"/>
			<stop  offset="0.1053" style="stop-color:#704A6A"/>
			<stop  offset="0.9049" style="stop-color:#615060"/>
			<stop  offset="0.9391" style="stop-color:#2B1D2A"/>
			<stop  offset="0.9646" style="stop-color:#5E3B5B"/>
			<stop  offset="0.9829" style="stop-color:#845675"/>
			<stop  offset="1" style="stop-color:#5B4A5C"/>
		</linearGradient>
		<rect x="212.6" y="109.4" class="st3" width="1.2" height="51.8"/>
		
			<linearGradient id="SVGID_00000168837010712540078730000000653536488676413115_" gradientUnits="userSpaceOnUse" x1="-467.9181" y1="421.5923" x2="-416.1508" y2="421.5923" gradientTransform="matrix(0 1 -1 0 635.7326 577.2998)">
			<stop  offset="0" style="stop-color:#676067"/>
			<stop  offset="6.402420e-02" style="stop-color:#654E63"/>
			<stop  offset="0.186" style="stop-color:#786F77"/>
			<stop  offset="0.8064" style="stop-color:#786F77"/>
			<stop  offset="0.9191" style="stop-color:#654E63"/>
			<stop  offset="1" style="stop-color:#676067"/>
		</linearGradient>
		<path style="fill:url(#SVGID_00000168837010712540078730000000653536488676413115_);" d="M213.8,161.1v-51.8l0.6,0.7
			c-0.3,5.5-0.3,44.9,0,50.4L213.8,161.1z"/>
	</g>
	<g>
		
			<linearGradient id="SVGID_00000003106979364283855470000003177477984238580151_" gradientUnits="userSpaceOnUse" x1="-478.8305" y1="877.2071" x2="-446.0305" y2="877.2071" gradientTransform="matrix(0 1 1 0 -875.0992 577.2998)">
			<stop  offset="0" style="stop-color:#68595F"/>
			<stop  offset="1.850530e-02" style="stop-color:#896E80"/>
			<stop  offset="3.819530e-02" style="stop-color:#5E3B5B"/>
			<stop  offset="8.205520e-02" style="stop-color:#2D1E2C"/>
			<stop  offset="0.1053" style="stop-color:#704A6A"/>
			<stop  offset="0.9049" style="stop-color:#615060"/>
			<stop  offset="0.9391" style="stop-color:#2D1E2C"/>
			<stop  offset="0.9646" style="stop-color:#5E3B5B"/>
			<stop  offset="0.9829" style="stop-color:#845675"/>
			<stop  offset="1" style="stop-color:#5B4A5C"/>
		</linearGradient>
		
			<rect x="1.8" y="98.5" style="fill:url(#SVGID_00000003106979364283855470000003177477984238580151_);" width="0.7" height="32.8"/>
		
			<linearGradient id="SVGID_00000167378543541643285290000013216974044708365237_" gradientUnits="userSpaceOnUse" x1="-478.822" y1="876.6821" x2="-446.029" y2="876.6821" gradientTransform="matrix(0 1 1 0 -875.0992 577.2998)">
			<stop  offset="0" style="stop-color:#676067"/>
			<stop  offset="6.402420e-02" style="stop-color:#654E63"/>
			<stop  offset="0.186" style="stop-color:#786F77"/>
			<stop  offset="0.8064" style="stop-color:#786F77"/>
			<stop  offset="0.9191" style="stop-color:#654E63"/>
			<stop  offset="1" style="stop-color:#676067"/>
		</linearGradient>
		<path style="fill:url(#SVGID_00000167378543541643285290000013216974044708365237_);" d="M1.8,131.3V98.5l-0.3,0.4
			c0.2,3.5,0.2,28.5,0,31.9L1.8,131.3z"/>
		
			<linearGradient id="SVGID_00000038390338864886102290000012259329953641110969_" gradientUnits="userSpaceOnUse" x1="2.8329" y1="131.2794" x2="2.8329" y2="98.4778">
			<stop  offset="0" style="stop-color:#68595F"/>
			<stop  offset="5.306120e-02" style="stop-color:#2D1E2C"/>
			<stop  offset="0.5184" style="stop-color:#5E3B5B"/>
			<stop  offset="0.9646" style="stop-color:#2D1E2C"/>
			<stop  offset="1" style="stop-color:#5B4A5C"/>
		</linearGradient>
		
			<rect x="2.5" y="98.5" style="fill:url(#SVGID_00000038390338864886102290000012259329953641110969_);" width="0.8" height="32.8"/>
	</g>
	<g>
		
			<linearGradient id="SVGID_00000021080806402413088490000006713159739018700444_" gradientUnits="userSpaceOnUse" x1="-437.5645" y1="877.2071" x2="-404.7645" y2="877.2071" gradientTransform="matrix(0 1 1 0 -875.0992 577.2998)">
			<stop  offset="0" style="stop-color:#68595F"/>
			<stop  offset="1.850530e-02" style="stop-color:#896E80"/>
			<stop  offset="3.819530e-02" style="stop-color:#5E3B5B"/>
			<stop  offset="8.205520e-02" style="stop-color:#2D1E2C"/>
			<stop  offset="0.1053" style="stop-color:#704A6A"/>
			<stop  offset="0.9049" style="stop-color:#615060"/>
			<stop  offset="0.9391" style="stop-color:#2D1E2C"/>
			<stop  offset="0.9646" style="stop-color:#5E3B5B"/>
			<stop  offset="0.9829" style="stop-color:#845675"/>
			<stop  offset="1" style="stop-color:#5B4A5C"/>
		</linearGradient>
		
			<rect x="1.8" y="139.7" style="fill:url(#SVGID_00000021080806402413088490000006713159739018700444_);" width="0.7" height="32.8"/>
		
			<linearGradient id="SVGID_00000009581065388294076190000003265891927552837554_" gradientUnits="userSpaceOnUse" x1="-437.556" y1="876.6821" x2="-404.763" y2="876.6821" gradientTransform="matrix(0 1 1 0 -875.0992 577.2998)">
			<stop  offset="0" style="stop-color:#676067"/>
			<stop  offset="6.402420e-02" style="stop-color:#654E63"/>
			<stop  offset="0.186" style="stop-color:#786F77"/>
			<stop  offset="0.8064" style="stop-color:#786F77"/>
			<stop  offset="0.9191" style="stop-color:#654E63"/>
			<stop  offset="1" style="stop-color:#676067"/>
		</linearGradient>
		<path style="fill:url(#SVGID_00000009581065388294076190000003265891927552837554_);" d="M1.8,172.5v-32.8l-0.3,0.4
			c0.2,3.5,0.2,28.5,0,31.9L1.8,172.5z"/>
		
			<linearGradient id="SVGID_00000145028128873256959260000003329860096098003086_" gradientUnits="userSpaceOnUse" x1="2.8329" y1="172.5454" x2="2.8329" y2="139.7438">
			<stop  offset="0" style="stop-color:#68595F"/>
			<stop  offset="5.306120e-02" style="stop-color:#2D1E2C"/>
			<stop  offset="0.5184" style="stop-color:#5E3B5B"/>
			<stop  offset="0.9646" style="stop-color:#2D1E2C"/>
			<stop  offset="1" style="stop-color:#5B4A5C"/>
		</linearGradient>
		
			<rect x="2.5" y="139.7" style="fill:url(#SVGID_00000145028128873256959260000003329860096098003086_);" width="0.8" height="32.8"/>
	</g>
	<g>
		
			<linearGradient id="SVGID_00000067234654239361181480000001784857502243030166_" gradientUnits="userSpaceOnUse" x1="-509.8211" y1="877.2071" x2="-492.9856" y2="877.2071" gradientTransform="matrix(0 1 1 0 -875.0992 577.2998)">
			<stop  offset="0" style="stop-color:#68595F"/>
			<stop  offset="1.850530e-02" style="stop-color:#896E80"/>
			<stop  offset="3.819530e-02" style="stop-color:#5E3B5B"/>
			<stop  offset="8.205520e-02" style="stop-color:#2D1E2C"/>
			<stop  offset="0.1053" style="stop-color:#704A6A"/>
			<stop  offset="0.9049" style="stop-color:#615060"/>
			<stop  offset="0.9391" style="stop-color:#2D1E2C"/>
			<stop  offset="0.9646" style="stop-color:#5E3B5B"/>
			<stop  offset="0.9829" style="stop-color:#845675"/>
			<stop  offset="1" style="stop-color:#5B4A5C"/>
		</linearGradient>
		
			<rect x="1.8" y="67.5" style="fill:url(#SVGID_00000067234654239361181480000001784857502243030166_);" width="0.7" height="16.8"/>
		
			<linearGradient id="SVGID_00000091712139209920751770000014680899528101925800_" gradientUnits="userSpaceOnUse" x1="-509.813" y1="876.6821" x2="-492.9841" y2="876.6821" gradientTransform="matrix(0 1 1 0 -875.0992 577.2998)">
			<stop  offset="0" style="stop-color:#676067"/>
			<stop  offset="6.402420e-02" style="stop-color:#654E63"/>
			<stop  offset="0.186" style="stop-color:#786F77"/>
			<stop  offset="0.8064" style="stop-color:#786F77"/>
			<stop  offset="0.9191" style="stop-color:#654E63"/>
			<stop  offset="1" style="stop-color:#676067"/>
		</linearGradient>
		<path style="fill:url(#SVGID_00000091712139209920751770000014680899528101925800_);" d="M1.8,84.3V67.5l-0.3,0.4
			c0.2,3.3,0.2,12.7,0,16L1.8,84.3z"/>
		
			<linearGradient id="SVGID_00000083059598172451307210000004684561403426830507_" gradientUnits="userSpaceOnUse" x1="2.8329" y1="84.3237" x2="2.8329" y2="67.4868">
			<stop  offset="0" style="stop-color:#68595F"/>
			<stop  offset="5.306120e-02" style="stop-color:#2D1E2C"/>
			<stop  offset="0.5184" style="stop-color:#5E3B5B"/>
			<stop  offset="0.9646" style="stop-color:#2D1E2C"/>
			<stop  offset="1" style="stop-color:#5B4A5C"/>
		</linearGradient>
		
			<rect x="2.5" y="67.5" style="fill:url(#SVGID_00000083059598172451307210000004684561403426830507_);" width="0.8" height="16.8"/>
	</g>
</g>
<g>
	<defs>
		<path id="SVGID_00000177459425954860967270000006563426324956428478_" d="M162,9.7h16.3c13.3,0,24.1,10.8,24.1,24.1V395
			c0,13.3-10.8,24.1-24.1,24.1H37.5c-13.3,0-24.1-10.8-24.1-24.1V33.8c0-13.3,10.8-24.1,24.1-24.1c5.3,0,10.6,0,16.2,0H162z"/>
	</defs>
	<clipPath id="SVGID_00000140712229806034406590000014854826890558138024_">
		<use xlink:href="#SVGID_00000177459425954860967270000006563426324956428478_"  style="overflow:visible;"/>
	</clipPath>
	
		<rect x="12.9" y="9" style="clip-path:url(#SVGID_00000140712229806034406590000014854826890558138024_);fill:#223377;" width="190" height="100"/>
	
		<rect x="12.9" y="109" style="clip-path:url(#SVGID_00000140712229806034406590000014854826890558138024_);fill:#FFFFFF;" width="190" height="310"/>
	<g style="clip-path:url(#SVGID_00000140712229806034406590000014854826890558138024_);">
		<g>
			<g>
				<g>
					<defs>
						<path id="SVGID_00000096738905256568774680000011062801603212551560_" d="M114.1,55h-12.9v20v8.6h8.6V75h4.3
							c5.5,0,10-4.5,10-10S119.7,55,114.1,55z"/>
					</defs>
					<clipPath id="SVGID_00000176722623805678284150000010741036173271184030_">
						<use xlink:href="#SVGID_00000096738905256568774680000011062801603212551560_"  style="overflow:visible;"/>
					</clipPath>
					<g style="clip-path:url(#SVGID_00000176722623805678284150000010741036173271184030_);">
						<g>
							<g>
								<defs>
									<rect id="SVGID_00000170986202951627224020000006390322422035764651_" x="100.9" y="54.6" width="23.6" height="29.3"/>
								</defs>
								<clipPath id="SVGID_00000065056371447252958440000009778657166482166951_">
									<use xlink:href="#SVGID_00000170986202951627224020000006390322422035764651_"  style="overflow:visible;"/>
								</clipPath>
								<g style="clip-path:url(#SVGID_00000065056371447252958440000009778657166482166951_);">
									
										<image style="overflow:visible;enable-background:new    ;" width="688" height="855" xlink:href="epp-gradient.jpg"  transform="matrix(3.428571e-02 0 0 3.428571e-02 100.9022 54.6343)">
									</image>
								</g>
							</g>
						</g>
					</g>
				</g>
			</g>
		</g>
		<g>
			
				<linearGradient id="SVGID_00000178910788135845222900000000360823225868211329_" gradientUnits="userSpaceOnUse" x1="474.8964" y1="-686.291" x2="497.7573" y2="-686.291" gradientTransform="matrix(0.309 -0.9511 -0.9511 -0.309 -708.5475 319.4868)">
				<stop  offset="0" style="stop-color:#53B7E8;stop-opacity:0.5"/>
				<stop  offset="1" style="stop-color:#53B7E8"/>
			</linearGradient>
			<path style="fill:url(#SVGID_00000178910788135845222900000000360823225868211329_);" d="M96,57.5l-4.8-1.5l-7.1,21.7l4.8,1.6
				c0.4-1.1,1.6-1.7,2.7-1.4c1.1,0.4,1.7,1.6,1.4,2.7l4.8,1.5l7.1-21.7l-4.8-1.5c-0.4,1.1-1.6,1.7-2.7,1.4
				C96.2,59.8,95.6,58.6,96,57.5z"/>
			<polygon class="st20" points="90.5,67.7 93.8,67.7 94.9,64.5 95.9,67.7 99.3,67.7 96.5,69.7 97.6,72.9 94.9,70.9 92.2,72.9 
				93.2,69.7 			"/>
			<g class="st21">
				
					<rect x="77.6" y="67.1" transform="matrix(0.309 -0.9511 0.9511 0.309 -2.4366 131.1249)" class="st20" width="22.9" height="0.4"/>
			</g>
			<g class="st21">
				
					<rect x="88.5" y="70.6" transform="matrix(0.309 -0.9511 0.9511 0.309 1.7162 143.9049)" class="st20" width="22.9" height="0.4"/>
			</g>
		</g>
	</g>
	
		<path style="clip-path:url(#SVGID_00000140712229806034406590000014854826890558138024_);fill:#D4F5FF;enable-background:new    ;" d="
		M184,290H30c-4.4,0-8-3.6-8-8v-64c0-4.4,3.6-8,8-8h154c4.4,0,8,3.6,8,8v64C192,286.4,188.4,290,184,290z"/>
	<path style="clip-path:url(#SVGID_00000140712229806034406590000014854826890558138024_);fill:#ABB2BD;" d="M148,170H66
		c-2.7,0-5-2.2-5-5l0,0c0-2.8,2.2-5,5-5h82c2.8,0,5,2.2,5,5l0,0C153,167.8,150.8,170,148,170z"/>
	<path style="clip-path:url(#SVGID_00000140712229806034406590000014854826890558138024_);fill:#C8CCD4;" d="M162,190H52
		c-2.8,0-5-2.2-5-5l0,0c0-2.8,2.2-5,5-5h110c2.8,0,5,2.2,5,5l0,0C167,187.8,164.8,190,162,190z"/>
	<path style="clip-path:url(#SVGID_00000140712229806034406590000014854826890558138024_);fill:#ABB2BD;" d="M119,230H37
		c-2.8,0-5-2.2-5-5l0,0c0-2.8,2.2-5,5-5h82c2.7,0,5,2.2,5,5l0,0C124,227.8,121.8,230,119,230z"/>
	<path style="clip-path:url(#SVGID_00000140712229806034406590000014854826890558138024_);fill:#FFFFFF;" d="M177,280L177,280
		c-2.8,0-5-2.2-5-5l0,0c0-2.8,2.2-5,5-5l0,0c2.8,0,5,2.2,5,5l0,0C182,277.8,179.8,280,177,280z"/>
	<path style="clip-path:url(#SVGID_00000140712229806034406590000014854826890558138024_);fill:#C8CCD4;" d="M147,250H37
		c-2.8,0-5-2.2-5-5l0,0c0-2.8,2.2-5,5-5h110c2.8,0,5,2.2,5,5l0,0C152,247.8,149.8,250,147,250z"/>
	
		<path style="clip-path:url(#SVGID_00000140712229806034406590000014854826890558138024_);fill:#D4F5FF;enable-background:new    ;" d="
		M184,423H30c-4.4,0-8-3.6-8-8v-37c0-4.4,3.6-8,8-8h154c4.4,0,8,3.6,8,8v37C192,419.4,188.4,423,184,423z"/>
	<path style="clip-path:url(#SVGID_00000140712229806034406590000014854826890558138024_);fill:#ABB2BD;" d="M119,390H37
		c-2.8,0-5-2.2-5-5l0,0c0-2.8,2.2-5,5-5h82c2.7,0,5,2.2,5,5l0,0C124,387.8,121.8,390,119,390z"/>
	<path style="clip-path:url(#SVGID_00000140712229806034406590000014854826890558138024_);fill:#C8CCD4;" d="M147,410H37
		c-2.8,0-5-2.2-5-5l0,0c0-2.8,2.2-5,5-5h110c2.8,0,5,2.2,5,5l0,0C152,407.8,149.8,410,147,410z"/>
	
		<path style="clip-path:url(#SVGID_00000140712229806034406590000014854826890558138024_);fill:#D4F5FF;enable-background:new    ;" d="
		M184,360H30c-4.4,0-8-3.6-8-8v-44c0-4.4,3.6-8,8-8h154c4.4,0,8,3.6,8,8v44C192,356.4,188.4,360,184,360z"/>
	<path style="clip-path:url(#SVGID_00000140712229806034406590000014854826890558138024_);fill:#ABB2BD;" d="M119,320H37
		c-2.8,0-5-2.2-5-5l0,0c0-2.8,2.2-5,5-5h82c2.7,0,5,2.2,5,5l0,0C124,317.8,121.8,320,119,320z"/>
	<path style="clip-path:url(#SVGID_00000140712229806034406590000014854826890558138024_);fill:#E8625D;" d="M177,350L177,350
		c-2.8,0-5-2.2-5-5l0,0c0-2.8,2.2-5,5-5l0,0c2.8,0,5,2.2,5,5l0,0C182,347.8,179.8,350,177,350z"/>
	<path style="clip-path:url(#SVGID_00000140712229806034406590000014854826890558138024_);fill:#C8CCD4;" d="M147,340H37
		c-2.8,0-5-2.2-5-5l0,0c0-2.8,2.2-5,5-5h110c2.8,0,5,2.2,5,5l0,0C152,337.8,149.8,340,147,340z"/>
	
		<circle style="clip-path:url(#SVGID_00000140712229806034406590000014854826890558138024_);fill:#ABB2BD;" cx="107.9" cy="137.5" r="12.5"/>
</g>
<g>
	<path class="st2" d="M123.7,29.7H90.3c-3.8,0-6.8-3.1-6.8-6.8l0,0c0-3.8,3.1-6.8,6.8-6.8h33.5c3.8,0,6.8,3.1,6.8,6.8l0,0
		C130.5,26.6,127.5,29.7,123.7,29.7z"/>
	<g>
		
			<linearGradient id="SVGID_00000178165601962183164290000017117625105468221323_" gradientUnits="userSpaceOnUse" x1="121.8415" y1="25.6347" x2="121.8415" y2="19.7734">
			<stop  offset="0" style="stop-color:#666666"/>
			<stop  offset="1" style="stop-color:#010104"/>
		</linearGradient>
		<circle style="fill:url(#SVGID_00000178165601962183164290000017117625105468221323_);" cx="121.8" cy="22.8" r="3"/>
		<image style="overflow:visible;" width="6" height="6" xlink:href="DA408FD6892FC8DD.png"  transform="matrix(1 0 0 1 119 20)">
		</image>
		
			<linearGradient id="SVGID_00000049219098602635781350000003540896426617645714_" gradientUnits="userSpaceOnUse" x1="118.4202" y1="-364.4347" x2="118.4202" y2="-367.7838" gradientTransform="matrix(-1 0 0 -1 240.2617 -343.1865)">
			<stop  offset="0" style="stop-color:#0B131C"/>
			<stop  offset="1" style="stop-color:#354039"/>
		</linearGradient>
		<circle style="fill:url(#SVGID_00000049219098602635781350000003540896426617645714_);" cx="121.8" cy="22.8" r="1.7"/>
		<g id="Camera_00000181771962106803296260000008551096653390836141_">
			
				<linearGradient id="SVGID_00000025441853668178572590000001925123102982995119_" gradientUnits="userSpaceOnUse" x1="122.8923" y1="23.8964" x2="120.7872" y2="21.7913">
				<stop  offset="0" style="stop-color:#231F20"/>
				<stop  offset="8.317667e-02" style="stop-color:#222326"/>
				<stop  offset="0.1958" style="stop-color:#1F2C37"/>
				<stop  offset="0.3254" style="stop-color:#1A3D54"/>
				<stop  offset="0.4675" style="stop-color:#13537C"/>
				<stop  offset="0.62" style="stop-color:#0B71AE"/>
				<stop  offset="0.7788" style="stop-color:#0094EC"/>
				<stop  offset="0.7847" style="stop-color:#0095EE"/>
				<stop  offset="0.7998" style="stop-color:#0488D6"/>
				<stop  offset="0.8384" style="stop-color:#0D689F"/>
				<stop  offset="0.8761" style="stop-color:#154E72"/>
				<stop  offset="0.912" style="stop-color:#1B394E"/>
				<stop  offset="0.9455" style="stop-color:#1F2B35"/>
				<stop  offset="0.9758" style="stop-color:#222225"/>
				<stop  offset="1" style="stop-color:#231F20"/>
			</linearGradient>
			<path style="fill:url(#SVGID_00000025441853668178572590000001925123102982995119_);" d="M123.3,22.8c0,0.8-0.7,1.5-1.5,1.5
				c-0.8,0-1.5-0.7-1.5-1.5c0-0.8,0.7-1.5,1.5-1.5C122.7,21.4,123.3,22,123.3,22.8z"/>
			
				<radialGradient id="SVGID_00000127726077003067113320000001964215192449020568_" cx="121.8407" cy="22.844" r="1.4876" gradientUnits="userSpaceOnUse">
				<stop  offset="0" style="stop-color:#231F20"/>
				<stop  offset="0.2019" style="stop-color:#175168"/>
				<stop  offset="0.3838" style="stop-color:#0D78A2"/>
				<stop  offset="0.5384" style="stop-color:#0695CB"/>
				<stop  offset="0.6597" style="stop-color:#02A7E5"/>
				<stop  offset="0.7326" style="stop-color:#00ADEE"/>
				<stop  offset="0.7594" style="stop-color:#02A6E4"/>
				<stop  offset="0.8055" style="stop-color:#0693C8"/>
				<stop  offset="0.8651" style="stop-color:#0E749C"/>
				<stop  offset="0.9352" style="stop-color:#184A5F"/>
				<stop  offset="1" style="stop-color:#231F20"/>
			</radialGradient>
			<path style="fill:url(#SVGID_00000127726077003067113320000001964215192449020568_);" d="M123.3,22.8c0,0.8-0.7,1.5-1.5,1.5
				c-0.8,0-1.5-0.7-1.5-1.5c0-0.8,0.7-1.5,1.5-1.5C122.7,21.4,123.3,22,123.3,22.8z"/>
		</g>
		
			<radialGradient id="SVGID_00000004546294111464560510000015124179168976554143_" cx="122.6578" cy="23.6201" r="0.5312" gradientUnits="userSpaceOnUse">
			<stop  offset="0" style="stop-color:#CCCCCC"/>
			<stop  offset="2.412361e-02" style="stop-color:#C4C4C4"/>
			<stop  offset="0.2198" style="stop-color:#898989"/>
			<stop  offset="0.4085" style="stop-color:#585858"/>
			<stop  offset="0.5855" style="stop-color:#323232"/>
			<stop  offset="0.7482" style="stop-color:#161616"/>
			<stop  offset="0.8915" style="stop-color:#060606"/>
			<stop  offset="1" style="stop-color:#000000"/>
		</radialGradient>
		<path style="fill:url(#SVGID_00000004546294111464560510000015124179168976554143_);" d="M123.2,23.6c0-0.3-0.2-0.5-0.5-0.5
			c-0.3,0-0.5,0.2-0.5,0.5c0,0.3,0.2,0.5,0.5,0.5C123,24.2,123.2,23.9,123.2,23.6z"/>
	</g>
</g>
</svg>
